<svg 
width="230px"
xmlns="http://www.w3.org/2000/svg" viewBox="0 0 815.06 297.34"><defs><style>.cls-1{fill:#5288f1;}.cls-2{fill:#bab2bb;}</style></defs><g id="Layer_2" data-name="Layer 2"><g id="Layer_3" data-name="Layer 3"><path class="cls-1" d="M286.4,144s-29.71-3.09-58.71,23.05L175.4,213.67l-5.7-4.75L221,163.76S244.33,138.57,286.4,144Z"/><path class="cls-1" d="M190.61,176.6l-46,41-2-2-4.75-4.76-9.51-8.55,6.66-7.13-7.13-3.81-13.78,11.89L57.52,155.68C30,138.09,0,143.8,0,143.8c39.45.47,59.89,22.81,59.89,22.81l54.43,47.06,7.37-6.65,22.88,21.31,54.91-49.86c26.93-24.76,40.57-29.92,40.57-29.92C213.43,153.3,190.61,176.6,190.61,176.6Z"/><path class="cls-1" d="M114.83,188.39l-2.6,2.64-2.74,2.79L63.85,156.05s-13.23-10.48-23.34-13.91a108.68,108.68,0,0,1,29.92,11.74S87.5,164.42,109.9,184C111.51,185.42,113.16,186.88,114.83,188.39Z"/><polygon class="cls-1" points="115.98 215.57 121.21 210.82 131.2 220.8 73.2 273.09 73.2 281.85 137.38 224.13 143.08 228.88 67.02 297.34 64.17 269.29 120.03 219.71 115.98 215.57"/><polygon class="cls-1" points="147.83 229.36 153.06 224.2 218.19 281.65 218.19 272.74 158.29 219.38 168.27 209.87 173.98 215.1 169.7 218.98 226.27 270.24 223.67 297.34 147.83 229.36"/><path class="cls-1" d="M116,175.63l8.44,3.57-4.94,4.86L114,189.29q-2.79-3.3-5.57-6.59Z"/><polygon class="cls-1" points="181.41 151.81 186.01 151.81 172.7 164.16 170.8 161.31 181.41 151.81"/><polygon class="cls-1" points="169.2 148.79 173.79 148.79 160.48 161.15 158.58 158.29 169.2 148.79"/><polygon class="cls-1" points="153.34 148.79 157.93 148.79 142.72 158.29 153.34 148.79"/><polygon class="cls-1" points="183.53 139.21 177.85 140.55 175.93 136.14 181.68 134.49 183.53 139.21"/><polygon class="cls-1" points="177.41 134.39 175.07 130.21 179.48 128.19 181.86 132.7 177.41 134.39"/><polygon class="cls-1" points="175.93 136.14 170.8 137.61 168.72 133.22 173.89 131.45 175.93 136.14"/><path class="cls-1" d="M185.46,97c-13.75-21.78-45.1-29.73-68-18.75A49.8,49.8,0,0,0,90.23,115c-2.38,16,6.46,32.6,20.13,40.85,2.54,1.53,10.14,6.1,20.2,5.26l.78-.07c3.85-.39,7.87-.79,11.38-2.71.19-.1,2.09-1.69,5.89-4.86.68-.58,2.06-1.73,3.72-3.41.46-.46.83-.86,1.09-1.14l.37.06c.22.06.37.12.4.13.5.19,2.88-.44,3.09-.14s-1.67,2-2.72,3c-1.78,1.62-2.09,2-3.08,3s-2.4,2.37-3.43,3.25a25.18,25.18,0,0,1-4.37,3,23.23,23.23,0,0,1-5.11,2,44.42,44.42,0,0,1-10.25.89C105,163.19,91.7,145.12,91.7,145.12,84.38,134.63,80.24,119,84,106.58c4.14-13.8,14-25.5,26.47-32.65C137.3,58.54,169.77,72.11,185.46,97Z"/><path class="cls-1" d="M188.2.06a11.32,11.32,0,0,0-.1,3.13A4.48,4.48,0,0,0,189.51,6c1,.81,2.08.73,3.2,1a5.76,5.76,0,0,1-5.21.29c-3.36-1.43-2.27-6,.71-7.3Z"/><circle class="cls-1" cx="189.6" cy="15.53" r="4.47"/><path class="cls-1" d="M132.54,43a12.16,12.16,0,0,0-.11,3.3,4.65,4.65,0,0,0,1.49,2.93c1,.86,2.18.77,3.37,1.08a6.07,6.07,0,0,1-5.49.31c-3.53-1.51-2.38-6.35.75-7.68Z"/><circle class="cls-1" cx="134.02" cy="59.27" r="4.7"/><path class="cls-1" d="M175.91,78.76q-.06-18.68-.11-37.37a40.92,40.92,0,0,1,.59-8.64,13.62,13.62,0,0,1,4.07-7.49,13,13,0,0,1,6.72-2.87,15.55,15.55,0,0,1,9,1.31c4.24,2.08,6.53,6.17,7.29,10.72.59,3.56.24,7.17.31,10.75.07,4,0,8,0,12,0,7.78-.05,15.56-.05,23.34v77.9c0,.08,0,1.59,0,1.59s-2.41.27-2.75-44l.06-14.2c0-19.21,0-38.43.32-57.64.06-4.22.22-8.7-1.79-12.56a12.31,12.31,0,0,0-9.44-6.38,10.76,10.76,0,0,0-9.37,3.77c-2.8,3.47-2.9,8.32-2.92,12.78A310,310,0,0,1,175.91,78.76Z"/><line class="cls-1" x1="154.42" y1="151.26" x2="153.94" y2="150.95"/><path class="cls-2" d="M323,145.9H317.9v-7.69h4.79a4.5,4.5,0,0,0,3.08-1.12,4.29,4.29,0,0,0,1.27-3.37V108a4.29,4.29,0,0,0-1.27-3.37,4.5,4.5,0,0,0-3.08-1.13H317.9V95.81H323a10.76,10.76,0,0,1,7.64,3.26q3.22,3.2,3.23,8.92v25.73q0,5.73-3.23,8.91A10.77,10.77,0,0,1,323,145.9Z"/><path class="cls-2" d="M362.91,145.9H338.2a10.78,10.78,0,0,1-7.94-3.23q-3.22-3.22-3.23-8.95h6.82a4.25,4.25,0,0,0,1.27,3.37,4.46,4.46,0,0,0,3.08,1.12h24.71Z"/><path class="cls-2" d="M388.35,145.9H355.67v-7.69h32.68Z"/><path class="cls-2" d="M413.8,145.9H381.11v-7.69H413.8Z"/><path class="cls-2" d="M439.24,145.9H406.55v-7.69h32.69Z"/><path class="cls-2" d="M464.68,145.9H432v-7.69h32.69Z"/><path class="cls-2" d="M469.75,110.67c0-1.64.73-2.47,2.18-2.47h2.32c1.54,0,2.32.83,2.32,2.47v23a4.25,4.25,0,0,0,1.27,3.37,4.79,4.79,0,0,0,6.16,0,4.29,4.29,0,0,0,1.27-3.37v-23c0-1.64.72-2.47,2.17-2.47h2.32c1.54,0,2.32.83,2.32,2.47v23a4.25,4.25,0,0,0,1.27,3.37,4.79,4.79,0,0,0,6.16,0,4.29,4.29,0,0,0,1.27-3.37v-23c0-1.84.72-2.76,2.17-2.76h2.32c1.55,0,2.32.92,2.32,2.76v23q0,5.73-3.26,8.95a11.34,11.34,0,0,1-15.66.18,11,11,0,0,1-7.75,3.05,10.83,10.83,0,0,1-7.76-3.05,11.77,11.77,0,0,1-8.48,3.05h-7.25v-7.69h7.25a5.61,5.61,0,0,0,3.81-1.12,4.28,4.28,0,0,0,1.26-3.37Zm15.59-15.51c-1.94,0-2.9-1.16-2.9-3.48V88.2c0-2.32,1-3.48,2.9-3.48s2.9,1.16,2.9,3.48v3.41C488.24,94,487.27,95.16,485.34,95.16Zm3.91-10.8q-3,0-3-3.48V77.4q0-3.48,3-3.48c1.89,0,2.85,1.16,2.9,3.48v3.4C492.1,83.17,491.14,84.36,489.25,84.36Zm3.84,10.8q-2.89,0-2.9-3.48V88.2q0-3.48,2.9-3.48c1.94,0,2.9,1.16,2.9,3.48v3.41C496,94,495,95.16,493.09,95.16Z"/><path class="cls-2" d="M511.43,98q-2.9,0-4.57-3.84a29.87,29.87,0,0,1-.94-4.06l2,.44A11.69,11.69,0,0,0,509.44,94a2.27,2.27,0,0,0,1.63.94,2.71,2.71,0,0,0,2.46-1.52,4,4,0,0,0,.29-1.53,15.3,15.3,0,0,0-.79-4.27h2.1a12.61,12.61,0,0,0,1.3,3.69,2.69,2.69,0,0,0,2,1.09,2.49,2.49,0,0,0,2-1,4,4,0,0,0,.44-1.81,27.54,27.54,0,0,0-.66-4.43h2a15.12,15.12,0,0,1,1.09,4.64q0,4.42-3.48,5.58a4.62,4.62,0,0,1-1.16.15,4.3,4.3,0,0,1-2.83-1.09,4.82,4.82,0,0,1-3.26,3.41A4.6,4.6,0,0,1,511.43,98Zm-5-10V85.15l7.18-2.9a5.81,5.81,0,0,1-2.25-4.63A6,6,0,0,1,513,73.3a5.44,5.44,0,0,1,7.9,0,6,6,0,0,1,1.63,4.32q0,3.9-4.28,5.87Zm10.51-7.1a2.9,2.9,0,0,0,2.21-1,3.37,3.37,0,0,0,.91-2.36,3.49,3.49,0,0,0-.91-2.43,2.89,2.89,0,0,0-2.21-1,3,3,0,0,0-2.25,1,3.42,3.42,0,0,0-.94,2.43,3.31,3.31,0,0,0,.94,2.36A3,3,0,0,0,516.94,80.88Z"/><path class="cls-2" d="M515.56,110.67c0-1.64.73-2.47,2.18-2.47h2.32c1.54,0,2.31.83,2.31,2.47v36.1q0,5.72-3.22,8.91a11.11,11.11,0,0,1-7.94,3.26v-7.68a4.51,4.51,0,0,0,3.08-1.12,4.27,4.27,0,0,0,1.27-3.37Z"/><path class="cls-2" d="M526.72,145.9a10.78,10.78,0,0,1-7.93-3.23q-3.22-3.22-3.23-8.95h6.81a4.29,4.29,0,0,0,1.27,3.37,4.79,4.79,0,0,0,6.16,0,4.25,4.25,0,0,0,1.27-3.37V60h6.82v73.72q0,5.73-3.27,8.95A10.81,10.81,0,0,1,526.72,145.9Z"/><path class="cls-2" d="M550.71,145.9h-6.66V60h6.66Z"/><path class="cls-2" d="M586.16,145.9a10.72,10.72,0,0,1-7.87-3.23q-3.22-3.22-3.29-8.95V108q0-5.73,3.26-9a11.3,11.3,0,0,1,15.8,0q3.26,3.24,3.26,9v26q0,5.58-3.26,8.77A10.91,10.91,0,0,1,586.16,145.9Zm-3.48-54.37q-3,0-3-3.48V84.57q0-3.48,3-3.48t2.9,3.48V88Q585.5,91.54,582.68,91.53Zm3.48,46.68a4.48,4.48,0,0,0,3.08-1.12,4.29,4.29,0,0,0,1.27-3.37V108a4.4,4.4,0,0,0-1.27-3.45,4.8,4.8,0,0,0-6.16,0,4.36,4.36,0,0,0-1.27,3.45v25.73a4.25,4.25,0,0,0,1.27,3.37A4.46,4.46,0,0,0,586.16,138.21Zm4.28-46.68q-3,0-3-3.48V84.57q0-3.48,3-3.48c1.88,0,2.85,1.16,2.89,3.48V88C593.29,90.35,592.32,91.53,590.44,91.53Z"/><path class="cls-2" d="M626.39,145.9H601.67a10.8,10.8,0,0,1-7.94-3.23q-3.22-3.22-3.22-8.95h6.81a4.25,4.25,0,0,0,1.27,3.37,4.46,4.46,0,0,0,3.08,1.12h24.72Z"/><path class="cls-2" d="M651.83,145.9H619.14v-7.69h32.69Z"/><path class="cls-2" d="M660.09,110.67c0-1.84.73-2.76,2.18-2.76h2.32c1.54,0,2.32.92,2.32,2.76v23q0,5.73-3.27,8.95a10.82,10.82,0,0,1-7.9,3.23H644.58v-7.69h11.16a4.46,4.46,0,0,0,3.08-1.12,4.25,4.25,0,0,0,1.27-3.37Zm-1.74,49.72q-2.9,0-2.9-3.48v-3.48q0-3.48,2.9-3.48c1.94,0,2.9,1.16,2.9,3.48v3.41C661.25,159.21,660.29,160.39,658.35,160.39Zm7.76,0c-1.94,0-2.9-1.16-2.9-3.48v-3.48c0-2.32,1-3.48,2.9-3.48s2.9,1.16,2.9,3.48v3.41Q669,160.4,666.11,160.39Z"/><path class="cls-2" d="M686.77,145.9a10.83,10.83,0,0,1-7.76-3.05,11,11,0,0,1-7.76,3.05,10.78,10.78,0,0,1-7.93-3.23q-3.23-3.22-3.23-8.95h6.82a4.28,4.28,0,0,0,1.26,3.37,4.8,4.8,0,0,0,6.16,0,4.25,4.25,0,0,0,1.27-3.37V108q0-5.73,3.23-9a11.35,11.35,0,0,1,15.84,0q3.26,3.24,3.26,9v25.73q0,5.73-3.26,8.95A10.84,10.84,0,0,1,686.77,145.9Zm0-7.69a4.5,4.5,0,0,0,3.08-1.12,4.29,4.29,0,0,0,1.27-3.37V108a4.36,4.36,0,1,0-8.7,0v25.73a4.25,4.25,0,0,0,1.27,3.37A4.46,4.46,0,0,0,686.77,138.21Z"/><path class="cls-2" d="M706.63,110.67c0-1.84.72-2.76,2.17-2.76h2.32c1.55,0,2.32.92,2.32,2.76v23q0,5.73-3.26,8.95a11.32,11.32,0,0,1-15.84,0q-3.23-3.22-3.23-8.95h6.82a4.25,4.25,0,0,0,1.27,3.37,4.8,4.8,0,0,0,6.16,0,4.29,4.29,0,0,0,1.27-3.37Zm-4.72,49.72q-2.89,0-2.9-3.48v-3.48q0-3.48,2.9-3.48c1.94,0,2.9,1.16,2.9,3.48v3.41C704.81,159.21,703.85,160.39,701.91,160.39Zm7.76,0q-2.89,0-2.9-3.48v-3.48q0-3.48,2.9-3.48t2.9,3.48v3.41Q712.57,160.4,709.67,160.39Z"/><path class="cls-2" d="M724.31,145.9h-5.07v-7.69H724a4.48,4.48,0,0,0,3.08-1.12,4.25,4.25,0,0,0,1.27-3.37V108a4.25,4.25,0,0,0-1.27-3.37,4.49,4.49,0,0,0-3.08-1.13h-4.78V95.81h5.07A10.77,10.77,0,0,1,732,99.07q3.22,3.2,3.22,8.92v25.73q0,5.73-3.22,8.91A10.78,10.78,0,0,1,724.31,145.9Z"/><path class="cls-2" d="M748.16,134.3h-6.82V60h6.82Z"/><path class="cls-2" d="M777.22,145.9H752.51a10.78,10.78,0,0,1-7.94-3.23q-3.23-3.22-3.23-8.95h6.82a4.25,4.25,0,0,0,1.27,3.37,4.46,4.46,0,0,0,3.08,1.12h24.71Z"/><path class="cls-2" d="M787.66,145.9H770v-7.69h17.69a4.48,4.48,0,0,0,3.08-1.12,4.25,4.25,0,0,0,1.27-3.37V108a4.37,4.37,0,0,0-1.27-3.41,4.67,4.67,0,0,0-6.16,0,4.37,4.37,0,0,0-1.27,3.41h-7.25l16.09-48.35,6.67.14-11.52,36A11.25,11.25,0,0,1,795.56,99q3.27,3.24,3.26,9v25.73q0,5.73-3.26,8.95A10.82,10.82,0,0,1,787.66,145.9Z"/><path class="cls-2" d="M815.06,56.89H801.43V53h.29a2.07,2.07,0,0,0,2.18-2.24V47a5.94,5.94,0,0,1,1.66-4.46,5.49,5.49,0,0,1,4-1.63,5.23,5.23,0,0,1,3.91,1.63,6.06,6.06,0,0,1,1.6,4.46h-3.34a2.1,2.1,0,0,0-.65-1.67,2.17,2.17,0,0,0-3.7,1.67V50.8A2.07,2.07,0,0,0,809.55,53h5.51Zm-3.26,89H805V60h6.82Z"/><path class="cls-2" d="M332.83,270.15h-6.92V233.4h-8.83v36.75h-6.92V196.43q0-5.73,3.27-9a11.63,11.63,0,0,1,16.09,0q3.32,3.22,3.31,9Zm-6.92-43.71v-30a4.32,4.32,0,0,0-1.29-3.4,4.77,4.77,0,0,0-6.26,0,4.35,4.35,0,0,0-1.28,3.4v30Z"/><path class="cls-2" d="M350.2,270.15h-6.92v-85.9h6.92Z"/><path class="cls-2" d="M384.65,251.38H360v-3.13h24.65Z"/><path class="cls-2" d="M423.82,270.15H416.9l-10.46-30.37a11.08,11.08,0,0,1-3.38-.8v31.17h-6.92v-85.9h11.33a11.09,11.09,0,0,1,8,3.23q3.31,3.22,3.31,9V227.6q0,7.47-5.67,10.73Zm-16.35-38.06A4.59,4.59,0,0,0,410.6,231a4.23,4.23,0,0,0,1.29-3.37V196.43a4.32,4.32,0,0,0-1.29-3.4,4.49,4.49,0,0,0-3.13-1.17h-4.41v35.81a4.14,4.14,0,0,0,1.29,3.3A4.56,4.56,0,0,0,407.47,232.09Z"/><path class="cls-2" d="M445,270.15a11,11,0,0,1-8-3.23q-3.29-3.23-3.35-8.95V218.68q0-5.72,3.31-9a11.61,11.61,0,0,1,16.05,0q3.31,3.22,3.31,9v39.51q0,5.58-3.31,8.77A11.17,11.17,0,0,1,445,270.15Zm0-7.69a4.58,4.58,0,0,0,3.12-1.12,4.44,4.44,0,0,0,1.37-3.37V218.68a4.56,4.56,0,0,0-1.37-3.4,4.81,4.81,0,0,0-6.22,0,4.14,4.14,0,0,0-1.25,3.23v39.72a4,4,0,0,0,1.25,3.19A4.59,4.59,0,0,0,445,262.46Z"/><path class="cls-2" d="M477.41,270.15a11.06,11.06,0,0,1-8-3.23q-3.31-3.23-3.32-8.95v-3.41H473V258a4.36,4.36,0,0,0,1.29,3.41,4.8,4.8,0,0,0,6.26,0,4.36,4.36,0,0,0,1.29-3.41v-5.8l-15.76-26.24v-7.46q0-5.73,3.28-9a11.65,11.65,0,0,1,16.08,0q3.31,3.24,3.32,9v3.4h-6.92v-3.4a4.35,4.35,0,0,0-1.29-3.41,4.8,4.8,0,0,0-6.26,0,4.35,4.35,0,0,0-1.29,3.41v5.8l15.76,26.23V258q0,5.73-3.28,8.95A11,11,0,0,1,477.41,270.15Z"/><path class="cls-2" d="M521.21,270.15h-6.92V219.26a4.34,4.34,0,0,0-1.29-3.4,4.48,4.48,0,0,0-3.13-1.16h-4.41v55.45h-6.92v-85.9h6.92v22.84h4.41a11.06,11.06,0,0,1,8.07,3.22q3.27,3.23,3.27,8.95Z"/><path class="cls-2" d="M553.68,270.15H542.34a11,11,0,0,1-8.06-3.23Q531,263.69,531,258V219.26q0-5.72,3.28-8.95a11,11,0,0,1,8.06-3.22h4.42V184.25h6.92Zm-6.92-7.69V214.7h-4.42a4.48,4.48,0,0,0-3.13,1.16,4.34,4.34,0,0,0-1.29,3.4V258a4.23,4.23,0,0,0,1.29,3.37,4.59,4.59,0,0,0,3.13,1.12Z"/><path class="cls-2" d="M600.72,270.15H593.8V233.4H585v36.75H578V196.43q0-5.73,3.28-9a11.63,11.63,0,0,1,16.09,0q3.32,3.22,3.31,9Zm-6.92-43.71v-30a4.32,4.32,0,0,0-1.29-3.4,4.77,4.77,0,0,0-6.26,0,4.32,4.32,0,0,0-1.29,3.4v30Z"/><path class="cls-2" d="M622.51,270.15a11,11,0,0,1-8.06-3.23q-3.29-3.23-3.28-8.95V219.26q0-5.72,3.28-8.95a11.65,11.65,0,0,1,16.08,0q3.32,3.23,3.32,8.95h-6.92a4.34,4.34,0,0,0-1.29-3.4,4.8,4.8,0,0,0-6.26,0,4.34,4.34,0,0,0-1.29,3.4V258a4.23,4.23,0,0,0,1.29,3.37,4.93,4.93,0,0,0,6.26,0,4.23,4.23,0,0,0,1.29-3.37h6.92q0,5.73-3.32,8.95A11.06,11.06,0,0,1,622.51,270.15Z"/><path class="cls-2" d="M666.31,270.15h-5.67l-1.25-4.93-.95,4.93H655a11,11,0,0,1-8.06-3.23q-3.28-3.23-3.28-8.95V219.26q0-5.72,3.28-8.95a11,11,0,0,1,8.06-3.22h11.33Zm-6.92-7.69V214.7H655a4.48,4.48,0,0,0-3.13,1.16,4.34,4.34,0,0,0-1.29,3.4V258a4.23,4.23,0,0,0,1.29,3.37,4.59,4.59,0,0,0,3.13,1.12Z"/><path class="cls-2" d="M698.78,270.15H687.44a11,11,0,0,1-8.06-3.23q-3.27-3.23-3.28-8.95V219.26q0-5.72,3.28-8.95a11,11,0,0,1,8.06-3.22h4.42V184.25h6.92Zm-6.92-7.69V214.7h-4.42a4.48,4.48,0,0,0-3.13,1.16,4.34,4.34,0,0,0-1.29,3.4V258a4.23,4.23,0,0,0,1.29,3.37,4.59,4.59,0,0,0,3.13,1.12Z"/><path class="cls-2" d="M719.91,270.15a11.06,11.06,0,0,1-8.07-3.23q-3.27-3.23-3.27-8.95V219.26q0-5.72,3.27-8.95a11.66,11.66,0,0,1,16.09,0q3.32,3.23,3.31,8.95V242H715.49v16a4.23,4.23,0,0,0,1.29,3.37,4.92,4.92,0,0,0,6.25,0,4.23,4.23,0,0,0,1.29-3.37h6.92q0,5.73-3.31,8.95A11.08,11.08,0,0,1,719.91,270.15Zm4.41-34.94v-16a4.34,4.34,0,0,0-1.29-3.4,4.79,4.79,0,0,0-6.25,0,4.34,4.34,0,0,0-1.29,3.4v16Z"/><path class="cls-2" d="M779.46,270.15h-6.92V219.26a4.34,4.34,0,0,0-1.29-3.4,4.79,4.79,0,0,0-6.25,0,4.34,4.34,0,0,0-1.29,3.4v50.89h-6.92V219.26a4.34,4.34,0,0,0-1.29-3.4,4.8,4.8,0,0,0-6.26,0,4.34,4.34,0,0,0-1.29,3.4v50.89H741V219.26q0-5.72,3.28-8.95a11,11,0,0,1,8.06-3.22,11.26,11.26,0,0,1,7.88,3,11.66,11.66,0,0,1,15.9.18q3.32,3.23,3.31,8.95Z"/><path class="cls-2" d="M800.59,295.66a11.11,11.11,0,0,1-8-3.19q-3.32-3.18-3.32-9V279h6.92v4.49a4.21,4.21,0,0,0,1.29,3.41,5,5,0,0,0,6.26,0,4.21,4.21,0,0,0,1.29-3.41V270.15h-4.42a11,11,0,0,1-8.06-3.23q-3.28-3.23-3.28-8.95V206.51h6.92V258a4.23,4.23,0,0,0,1.29,3.37,4.59,4.59,0,0,0,3.13,1.12H805V206.51h6.92v77q0,5.81-3.28,9A11.09,11.09,0,0,1,800.59,295.66Z"/></g></g></svg>